<svg width="212" height="36" viewBox="0 0 212 36" fill="none" xmlns="http://www.w3.org/2000/svg">
<path d="M18 27.405L27.27 33L24.81 22.455L33 15.36L22.215 14.445L18 4.5L13.785 14.445L3 15.36L11.19 22.455L8.73 33L18 27.405Z" fill="#950495"/>
<path d="M62 27.405L71.27 33L68.81 22.455L77 15.36L66.215 14.445L62 4.5L57.785 14.445L47 15.36L55.19 22.455L52.73 33L62 27.405Z" fill="#950495"/>
<path d="M106 27.405L115.27 33L112.81 22.455L121 15.36L110.215 14.445L106 4.5L101.785 14.445L91 15.36L99.19 22.455L96.73 33L106 27.405Z" fill="#950495"/>
<path d="M150 27.405L159.27 33L156.81 22.455L165 15.36L154.215 14.445L150 4.5L145.785 14.445L135 15.36L143.19 22.455L140.73 33L150 27.405Z" fill="#950495"/>
<path d="M194 27.405L203.27 33L200.81 22.455L209 15.36L198.215 14.445L194 4.5L189.785 14.445L179 15.36L187.19 22.455L184.73 33L194 27.405Z" fill="#EFF0F0"/>
</svg>
